<?xml version="1.0" encoding="UTF-8" standalone="no"?>
<!DOCTYPE svg PUBLIC "-//W3C//DTD SVG 1.1//EN" "http://www.w3.org/Graphics/SVG/1.1/DTD/svg11.dtd">
<svg width="100%" height="100%" viewBox="0 0 3300 450" version="1.1" xmlns="http://www.w3.org/2000/svg" xmlns:xlink="http://www.w3.org/1999/xlink" xml:space="preserve" xmlns:serif="http://www.serif.com/" style="fill-rule:evenodd;clip-rule:evenodd;stroke-linejoin:round;stroke-miterlimit:2;">
    <g>
        <path d="M667.737,248.625L611.155,248.625L611.155,333.293L567.063,333.293L567.063,117.375L672.971,117.375C688.108,117.668 699.753,119.523 707.908,122.941C716.062,126.359 722.971,131.389 728.635,138.029C733.323,143.498 737.034,149.553 739.768,156.193C742.502,162.834 743.87,170.402 743.87,178.898C743.87,189.153 741.282,199.235 736.106,209.147C730.93,219.06 721.604,230.608 710.471,236.168C716.818,252.67 747.239,333.293 747.239,333.293L697.58,333.293C696.213,328.508 670.568,259.032 667.737,248.625ZM685.129,209.367C694.114,205.266 698.606,197.16 698.606,185.051C698.606,171.965 694.26,163.176 685.569,158.684C680.686,156.145 673.362,154.875 663.596,154.875L611.155,154.875L611.155,212.883L662.278,212.883C672.434,212.883 680.051,211.711 685.129,209.367Z" style="fill-rule:nonzero;"/>
        <path d="M874.196,339.299C843.336,339.299 819.752,330.9 803.444,314.104C781.569,293.498 770.631,263.811 770.631,225.041C770.631,185.49 781.569,155.803 803.444,135.979C819.752,119.182 843.336,110.783 874.196,110.783C905.055,110.783 928.639,119.182 944.948,135.979C966.725,155.803 977.614,185.49 977.614,225.041C977.614,263.811 966.725,293.498 944.948,314.104C928.639,330.9 905.055,339.299 874.196,339.299ZM916.823,281.291C927.272,268.107 932.496,249.357 932.496,225.041C932.496,200.822 927.247,182.097 916.749,168.864C906.251,155.632 892.067,149.016 874.196,149.016C856.325,149.016 842.067,155.607 831.422,168.791C820.778,181.975 815.455,200.725 815.455,225.041C815.455,249.357 820.778,268.107 831.422,281.291C842.067,294.475 856.325,301.066 874.196,301.066C892.067,301.066 906.276,294.475 916.823,281.291Z" style="fill-rule:nonzero;"/>
        <path d="M1139.77,250.09L1139.77,117.375L1185.62,117.375L1185.62,250.09C1185.62,273.039 1182.06,290.91 1174.93,303.703C1161.65,327.141 1136.31,338.859 1098.9,338.859C1061.5,338.859 1036.11,327.141 1022.73,303.703C1015.6,290.91 1012.04,273.039 1012.04,250.09L1012.04,117.375L1057.89,117.375L1057.89,250.09C1057.89,264.934 1059.64,275.773 1063.16,282.609C1068.63,294.719 1080.54,300.773 1098.9,300.773C1117.16,300.773 1129.03,294.719 1134.5,282.609C1138.01,275.773 1139.77,264.934 1139.77,250.09Z" style="fill-rule:nonzero;"/>
        <path d="M1404.3,333.293L1359.18,333.293L1271,183.924L1271,333.293L1228.95,333.293L1228.95,117.375L1276.27,117.375L1362.26,264.107L1362.26,117.375L1404.3,117.375L1404.3,333.293Z" style="fill-rule:nonzero;"/>
        <path d="M1540.36,333.293L1447.34,333.293L1447.34,117.375L1540.36,117.375C1553.74,117.57 1564.87,119.133 1573.75,122.062C1588.89,127.043 1601.15,136.174 1610.52,149.455C1618.04,160.197 1623.17,171.818 1625.9,184.318C1628.64,196.818 1630,208.732 1630,220.061C1630,248.771 1624.24,273.088 1612.72,293.01C1597.09,319.866 1572.97,333.293 1540.36,333.293ZM1573.9,172.453C1566.97,160.734 1553.25,154.875 1532.74,154.875L1491.14,154.875L1491.14,295.793L1532.74,295.793C1554.03,295.793 1568.87,285.295 1577.27,264.299C1581.86,252.775 1584.15,239.055 1584.15,223.137C1584.15,201.164 1580.74,184.27 1573.9,172.453Z" style="fill-rule:nonzero;"/>
        <path d="M1757.24,239.093L1757.24,221.693L1849.64,221.693C1849.64,221.693 1849.97,277.722 1849.64,286.986C1846.66,296.471 1820.74,341.414 1751.54,338.993C1737.94,338.517 1725.34,336.593 1713.74,331.793C1702.14,326.993 1692.14,319.843 1683.74,310.343C1675.34,300.843 1668.79,288.893 1664.09,274.493C1659.39,260.093 1657.04,243.293 1657.04,224.093C1657.04,208.293 1659.04,193.543 1663.04,179.843C1667.04,166.143 1673.19,154.243 1681.49,144.143C1689.79,134.043 1700.19,126.093 1712.69,120.293C1725.19,114.493 1739.94,111.593 1756.94,111.593C1768.34,111.593 1778.99,112.993 1788.89,115.793C1798.79,118.593 1807.69,122.843 1815.59,128.543C1823.49,134.243 1830.14,141.343 1835.54,149.843C1840.94,158.343 1844.84,168.393 1847.24,179.993L1826.24,179.993C1824.44,171.993 1821.39,164.793 1817.09,158.393C1812.79,151.993 1807.64,146.643 1801.64,142.343C1795.64,138.043 1788.94,134.743 1781.54,132.443C1774.14,130.143 1766.44,128.993 1758.44,128.993C1744.24,128.993 1732.04,131.493 1721.84,136.493C1711.64,141.493 1703.24,148.543 1696.64,157.643C1690.04,166.743 1685.19,177.643 1682.09,190.343C1678.99,203.043 1677.44,216.993 1677.44,232.193C1677.44,244.193 1679.19,255.593 1682.69,266.393C1686.19,277.193 1691.29,286.693 1697.99,294.893C1704.69,303.093 1712.89,309.593 1722.59,314.393C1732.29,319.193 1743.35,321.901 1755.74,321.593C1795.71,320.599 1818.07,301.07 1830.15,283.66C1830.05,276.664 1830.14,239.093 1830.14,239.093L1757.24,239.093Z" style="fill-rule:nonzero;"/>
        <path d="M1978.54,217.793C1986.14,217.793 1993.19,216.993 1999.69,215.393C2006.19,213.793 2011.84,211.243 2016.64,207.743C2021.44,204.243 2025.24,199.793 2028.04,194.393C2030.84,188.994 2032.24,182.493 2032.24,174.893C2032.24,166.893 2030.79,160.293 2027.89,155.093C2024.99,149.893 2021.09,145.793 2016.19,142.793C2011.29,139.793 2005.69,137.693 1999.39,136.493C1993.09,135.293 1986.54,134.693 1979.74,134.693L1914.94,134.693L1914.94,217.793L1978.54,217.793ZM1914.94,235.193L1914.94,333.293L1894.54,333.293L1894.54,117.293L1979.14,117.293C2002.94,117.293 2021.14,121.743 2033.74,130.643C2046.34,139.543 2052.64,153.993 2052.64,173.993C2052.64,187.593 2049.89,198.393 2044.39,206.393C2038.89,214.393 2029.9,222.67 2017.54,228.793C2020.92,239.279 2054.14,333.293 2054.14,333.293L2031.64,333.293C2029.93,329.472 1999.76,242.376 1997.14,235.193L1914.94,235.193Z" style="fill-rule:nonzero;"/>
        <path d="M2084.54,225.593C2084.54,209.793 2086.69,194.993 2090.99,181.193C2095.29,167.393 2101.64,155.343 2110.04,145.043C2118.44,134.743 2128.84,126.593 2141.24,120.593C2153.64,114.593 2167.94,111.593 2184.14,111.593C2200.94,111.593 2215.69,114.543 2228.39,120.443C2241.09,126.343 2251.69,134.443 2260.19,144.743C2268.69,155.043 2275.09,167.143 2279.39,181.043C2283.69,194.943 2285.84,209.793 2285.84,225.593C2285.84,241.193 2283.69,255.843 2279.39,269.543C2275.09,283.243 2268.74,295.243 2260.34,305.543C2251.94,315.843 2241.44,323.993 2228.84,329.993C2216.24,335.993 2201.64,338.993 2185.04,338.993C2168.44,338.993 2153.84,335.993 2141.24,329.993C2128.64,323.993 2118.14,315.843 2109.74,305.543C2101.34,295.243 2095.04,283.243 2090.84,269.543C2086.64,255.843 2084.54,241.193 2084.54,225.593ZM2185.34,321.593C2199.34,321.593 2211.39,318.943 2221.49,313.643C2231.59,308.343 2239.89,301.293 2246.39,292.493C2252.89,283.693 2257.69,273.493 2260.79,261.893C2263.89,250.293 2265.44,238.193 2265.44,225.593C2265.44,210.593 2263.59,197.143 2259.89,185.243C2256.19,173.343 2250.84,163.193 2243.84,154.793C2236.84,146.393 2228.34,139.993 2218.34,135.593C2208.34,131.193 2197.14,128.993 2184.74,128.993C2170.94,128.993 2158.99,131.693 2148.89,137.093C2138.79,142.493 2130.49,149.643 2123.99,158.543C2117.49,167.443 2112.69,177.693 2109.59,189.293C2106.49,200.893 2104.94,212.993 2104.94,225.593C2104.94,238.393 2106.49,250.593 2109.59,262.193C2112.69,273.793 2117.49,283.993 2123.99,292.793C2130.49,301.593 2138.79,308.593 2148.89,313.793C2158.99,318.993 2171.14,321.593 2185.34,321.593Z" style="fill-rule:nonzero;"/>
        <path d="M2326.64,117.293L2347.04,117.293L2347.04,245.993C2347.04,272.793 2352.04,292.093 2362.04,303.893C2372.04,315.693 2388.14,321.593 2410.34,321.593C2421.94,321.593 2431.79,320.043 2439.89,316.943C2447.99,313.843 2454.54,309.143 2459.54,302.843C2464.54,296.543 2468.14,288.693 2470.34,279.293C2472.54,269.893 2473.64,258.793 2473.64,245.993L2473.64,117.293L2494.04,117.293L2494.04,251.993C2494.04,280.193 2487.09,301.743 2473.19,316.643C2459.29,331.543 2438.34,338.993 2410.34,338.993C2382.14,338.993 2361.14,331.393 2347.34,316.193C2333.54,300.993 2326.64,279.593 2326.64,251.993L2326.64,117.293Z" style="fill-rule:nonzero;"/>
        <path d="M2563.34,145.893L2562.74,145.893L2562.74,333.293L2542.34,333.293L2542.34,117.293L2565.44,117.293L2690.24,304.993L2690.84,304.993L2690.84,117.293L2711.24,117.293L2711.24,333.293L2687.54,333.293L2563.34,145.893Z" style="fill-rule:nonzero;"/>
        <path d="M2759.54,333.293L2759.54,117.293L2833.34,117.293C2839.34,117.293 2845.24,117.443 2851.04,117.743C2856.84,118.043 2862.54,118.743 2868.14,119.843C2873.74,120.943 2879.19,122.593 2884.49,124.793C2889.79,126.993 2894.94,129.893 2899.94,133.493C2907.14,138.693 2913.04,145.043 2917.64,152.543C2922.24,160.043 2925.89,167.943 2928.59,176.243C2931.29,184.543 2933.19,192.943 2934.29,201.443C2935.39,209.943 2935.94,217.793 2935.94,224.993C2935.94,232.193 2935.49,239.493 2934.59,246.893C2933.69,254.293 2932.24,261.543 2930.24,268.643C2928.24,275.743 2925.59,282.543 2922.29,289.043C2918.99,295.543 2914.84,301.493 2909.84,306.893C2904.84,312.493 2899.39,316.993 2893.49,320.394C2887.59,323.793 2881.39,326.443 2874.89,328.343C2868.39,330.243 2861.64,331.543 2854.64,332.243C2847.64,332.943 2840.54,333.293 2833.34,333.293L2759.54,333.293ZM2779.94,315.893L2828.84,315.893C2838.04,315.893 2846.69,315.343 2854.79,314.243C2862.89,313.143 2871.14,310.393 2879.54,305.993C2886.74,302.393 2892.64,297.493 2897.24,291.293C2901.84,285.093 2905.49,278.343 2908.19,271.043C2910.89,263.743 2912.79,256.093 2913.89,248.093C2914.99,240.093 2915.54,232.393 2915.54,224.993C2915.54,217.193 2915.04,209.243 2914.04,201.143C2913.04,193.043 2911.14,185.343 2908.34,178.043C2905.54,170.743 2901.74,164.043 2896.94,157.943C2892.14,151.843 2885.94,146.793 2878.34,142.793C2871.94,139.393 2864.34,137.193 2855.54,136.193C2846.74,135.193 2837.84,134.693 2828.84,134.693L2779.94,134.693L2779.94,315.893Z" style="fill-rule:nonzero;"/>
        <path d="M2984.54,268.793C2985.34,278.393 2987.49,286.543 2990.99,293.243C2994.49,299.943 2998.99,305.393 3004.49,309.593C3009.99,313.793 3016.34,316.843 3023.54,318.743C3030.74,320.644 3038.44,321.593 3046.64,321.593C3056.24,321.593 3064.54,320.394 3071.54,317.993C3078.54,315.593 3084.24,312.343 3088.64,308.243C3093.04,304.143 3096.29,299.393 3098.39,293.993C3100.49,288.593 3101.54,282.893 3101.54,276.893C3101.54,268.493 3099.64,261.693 3095.84,256.493C3092.04,251.293 3087.09,247.043 3080.99,243.743C3074.89,240.443 3067.89,237.793 3059.99,235.793C3052.09,233.793 3043.99,231.843 3035.69,229.943C3027.39,228.043 3019.29,225.793 3011.39,223.193C3003.49,220.593 2996.49,217.093 2990.39,212.693C2984.29,208.293 2979.34,202.643 2975.54,195.743C2971.74,188.843 2969.84,180.093 2969.84,169.493C2969.84,162.093 2971.39,154.893 2974.49,147.893C2977.59,140.893 2982.19,134.693 2988.29,129.293C2994.39,123.893 3002.04,119.593 3011.24,116.393C3020.44,113.193 3031.04,111.593 3043.04,111.593C3055.24,111.593 3065.89,113.293 3074.99,116.693C3084.09,120.093 3091.64,124.743 3097.64,130.643C3103.64,136.543 3108.14,143.393 3111.14,151.193C3114.14,158.993 3115.64,167.293 3115.64,176.093L3096.14,176.093C3096.14,167.893 3094.69,160.793 3091.79,154.793C3088.89,148.793 3084.94,143.893 3079.94,140.093C3074.94,136.293 3069.24,133.493 3062.84,131.693C3056.44,129.893 3049.84,128.993 3043.04,128.993C3032.64,128.993 3023.89,130.443 3016.79,133.343C3009.69,136.243 3004.04,139.993 2999.84,144.593C2995.64,149.193 2992.74,154.293 2991.14,159.893C2989.54,165.493 2989.24,171.093 2990.24,176.693C2991.44,183.693 2994.24,189.293 2998.64,193.494C3003.04,197.693 3008.44,201.143 3014.84,203.843C3021.24,206.543 3028.29,208.743 3035.99,210.443C3043.69,212.143 3051.54,213.943 3059.54,215.843C3067.54,217.743 3075.29,219.993 3082.79,222.593C3090.29,225.193 3096.94,228.693 3102.74,233.093C3108.54,237.493 3113.19,243.143 3116.69,250.043C3120.19,256.943 3121.94,265.593 3121.94,275.993C3121.94,295.993 3115.04,311.493 3101.24,322.493C3087.44,333.493 3068.04,338.993 3043.04,338.993C3031.84,338.993 3021.44,337.543 3011.84,334.643C3002.24,331.743 2993.94,327.343 2986.94,321.443C2979.94,315.543 2974.49,308.243 2970.59,299.543C2966.69,290.843 2964.74,280.593 2964.74,268.793L2984.54,268.793Z" style="fill-rule:nonzero;"/>
        <path d="M302.477,110.783C365.538,110.783 416.735,161.98 416.735,225.041C416.735,288.102 365.538,339.299 302.477,339.299C239.417,339.299 188.219,288.102 188.219,225.041C188.219,161.98 239.417,110.783 302.477,110.783ZM302.477,134.157C352.637,134.157 393.361,174.881 393.361,225.041C393.361,275.201 352.637,315.925 302.477,315.925C252.317,315.925 211.593,275.201 211.593,225.041C211.593,174.881 252.317,134.157 302.477,134.157Z"/>
        <path d="M302.477,187.691L334.04,244.276L270.914,244.276L302.477,187.691Z"/>
    </g>
</svg>
